<mxfile host="Electron" modified="2024-05-12T07:34:14.868Z" agent="Mozilla/5.0 (Macintosh; Intel Mac OS X 10_15_7) AppleWebKit/537.36 (KHTML, like Gecko) draw.io/22.1.2 Chrome/114.0.5735.289 Electron/25.9.4 Safari/537.36" etag="_n550Jcce7PjlHRbFlwr" version="22.1.2" type="device">
  <diagram name="Page-1" id="BwP0kOBipgVBkYCvuwW3">
    <mxGraphModel dx="1242" dy="878" grid="1" gridSize="10" guides="1" tooltips="1" connect="1" arrows="1" fold="1" page="1" pageScale="1" pageWidth="827" pageHeight="1169" math="0" shadow="0">
      <root>
        <mxCell id="0" />
        <mxCell id="1" parent="0" />
        <mxCell id="K7zcIh3FPO0Lbh3rbv_w-7" value="index:value" style="rounded=0;whiteSpace=wrap;html=1;" vertex="1" parent="1">
          <mxGeometry x="40" y="60" width="70" height="70" as="geometry" />
        </mxCell>
        <mxCell id="K7zcIh3FPO0Lbh3rbv_w-8" value="3:-3" style="rounded=0;whiteSpace=wrap;html=1;" vertex="1" parent="1">
          <mxGeometry x="300" y="570" width="40" height="40" as="geometry" />
        </mxCell>
        <mxCell id="K7zcIh3FPO0Lbh3rbv_w-9" value="2:-1" style="rounded=0;whiteSpace=wrap;html=1;" vertex="1" parent="1">
          <mxGeometry x="240" y="570" width="40" height="40" as="geometry" />
        </mxCell>
        <mxCell id="K7zcIh3FPO0Lbh3rbv_w-10" value="1:3" style="rounded=0;whiteSpace=wrap;html=1;" vertex="1" parent="1">
          <mxGeometry x="180" y="570" width="40" height="40" as="geometry" />
        </mxCell>
        <mxCell id="K7zcIh3FPO0Lbh3rbv_w-11" value="0:1" style="rounded=0;whiteSpace=wrap;html=1;" vertex="1" parent="1">
          <mxGeometry x="120" y="570" width="40" height="40" as="geometry" />
        </mxCell>
        <mxCell id="K7zcIh3FPO0Lbh3rbv_w-12" value="4:5" style="rounded=0;whiteSpace=wrap;html=1;" vertex="1" parent="1">
          <mxGeometry x="360" y="570" width="40" height="40" as="geometry" />
        </mxCell>
        <mxCell id="K7zcIh3FPO0Lbh3rbv_w-13" value="5:3" style="rounded=0;whiteSpace=wrap;html=1;" vertex="1" parent="1">
          <mxGeometry x="420" y="570" width="40" height="40" as="geometry" />
        </mxCell>
        <mxCell id="K7zcIh3FPO0Lbh3rbv_w-14" value="Boxes representing entries in the array contains its index and value like the following:" style="text;html=1;strokeColor=none;fillColor=none;align=left;verticalAlign=middle;whiteSpace=wrap;rounded=0;" vertex="1" parent="1">
          <mxGeometry x="40" y="20" width="380" height="30" as="geometry" />
        </mxCell>
        <mxCell id="K7zcIh3FPO0Lbh3rbv_w-15" value="&lt;b&gt;Example array&lt;/b&gt;" style="text;html=1;align=left;verticalAlign=middle;resizable=0;points=[];autosize=1;strokeColor=none;fillColor=none;" vertex="1" parent="1">
          <mxGeometry x="40" y="158" width="110" height="30" as="geometry" />
        </mxCell>
        <mxCell id="K7zcIh3FPO0Lbh3rbv_w-16" value="6:6" style="rounded=0;whiteSpace=wrap;html=1;" vertex="1" parent="1">
          <mxGeometry x="480" y="570" width="40" height="40" as="geometry" />
        </mxCell>
        <mxCell id="K7zcIh3FPO0Lbh3rbv_w-17" value="7:7" style="rounded=0;whiteSpace=wrap;html=1;" vertex="1" parent="1">
          <mxGeometry x="540" y="570" width="40" height="40" as="geometry" />
        </mxCell>
        <mxCell id="K7zcIh3FPO0Lbh3rbv_w-18" value="3:-3" style="rounded=0;whiteSpace=wrap;html=1;" vertex="1" parent="1">
          <mxGeometry x="220" y="200" width="40" height="40" as="geometry" />
        </mxCell>
        <mxCell id="K7zcIh3FPO0Lbh3rbv_w-19" value="2:-1" style="rounded=0;whiteSpace=wrap;html=1;" vertex="1" parent="1">
          <mxGeometry x="160" y="200" width="40" height="40" as="geometry" />
        </mxCell>
        <mxCell id="K7zcIh3FPO0Lbh3rbv_w-20" value="1:3" style="rounded=0;whiteSpace=wrap;html=1;" vertex="1" parent="1">
          <mxGeometry x="100" y="200" width="40" height="40" as="geometry" />
        </mxCell>
        <mxCell id="K7zcIh3FPO0Lbh3rbv_w-21" value="0:1" style="rounded=0;whiteSpace=wrap;html=1;" vertex="1" parent="1">
          <mxGeometry x="40" y="200" width="40" height="40" as="geometry" />
        </mxCell>
        <mxCell id="K7zcIh3FPO0Lbh3rbv_w-22" value="4:5" style="rounded=0;whiteSpace=wrap;html=1;" vertex="1" parent="1">
          <mxGeometry x="280" y="200" width="40" height="40" as="geometry" />
        </mxCell>
        <mxCell id="K7zcIh3FPO0Lbh3rbv_w-23" value="5:3" style="rounded=0;whiteSpace=wrap;html=1;" vertex="1" parent="1">
          <mxGeometry x="340" y="200" width="40" height="40" as="geometry" />
        </mxCell>
        <mxCell id="K7zcIh3FPO0Lbh3rbv_w-24" value="6:6" style="rounded=0;whiteSpace=wrap;html=1;" vertex="1" parent="1">
          <mxGeometry x="400" y="200" width="40" height="40" as="geometry" />
        </mxCell>
        <mxCell id="K7zcIh3FPO0Lbh3rbv_w-25" value="7:7" style="rounded=0;whiteSpace=wrap;html=1;" vertex="1" parent="1">
          <mxGeometry x="460" y="200" width="40" height="40" as="geometry" />
        </mxCell>
        <mxCell id="K7zcIh3FPO0Lbh3rbv_w-26" value="&lt;b&gt;Solution&lt;/b&gt;&lt;br&gt;Let a double ended queue represent the array entries within the sliding window&lt;br&gt;Store the indices of the elements in the deque&lt;br&gt;Largest element in the deque shall always be at the top&lt;br&gt;Loop through the array item by item&lt;br&gt;&lt;br&gt;For each item&lt;br&gt;1. Remove element at the top if it is outside of the window&lt;br&gt;2. Maintain the deque so that all items in the queue that is smaller than the current item is removed, they cannot contribute&lt;br&gt;3. Add the current item to the back of the queue since all smaller items has been removed in step 2&lt;br&gt;4. If current item is not within the first k-1 entries add the top element if the deque to the result array" style="text;html=1;strokeColor=none;fillColor=none;align=left;verticalAlign=top;whiteSpace=wrap;rounded=0;" vertex="1" parent="1">
          <mxGeometry x="40" y="280" width="640" height="170" as="geometry" />
        </mxCell>
        <mxCell id="K7zcIh3FPO0Lbh3rbv_w-27" value="Window size k = 3" style="text;html=1;strokeColor=none;fillColor=none;align=left;verticalAlign=middle;whiteSpace=wrap;rounded=0;" vertex="1" parent="1">
          <mxGeometry x="40" y="250" width="380" height="30" as="geometry" />
        </mxCell>
        <mxCell id="K7zcIh3FPO0Lbh3rbv_w-28" value="0:1" style="rounded=0;whiteSpace=wrap;html=1;fillColor=#d5e8d4;strokeColor=#82b366;" vertex="1" parent="1">
          <mxGeometry x="120" y="640" width="40" height="40" as="geometry" />
        </mxCell>
        <mxCell id="K7zcIh3FPO0Lbh3rbv_w-29" value="&lt;h1&gt;&lt;span style=&quot;background-color: initial; font-size: 12px;&quot;&gt;i = 0&lt;/span&gt;&lt;br&gt;&lt;/h1&gt;" style="text;html=1;strokeColor=none;fillColor=none;spacing=5;spacingTop=-20;whiteSpace=wrap;overflow=hidden;rounded=0;" vertex="1" parent="1">
          <mxGeometry x="40" y="480" width="40" height="40" as="geometry" />
        </mxCell>
        <mxCell id="K7zcIh3FPO0Lbh3rbv_w-30" value="array" style="text;html=1;strokeColor=none;fillColor=none;align=left;verticalAlign=middle;whiteSpace=wrap;rounded=0;fontStyle=0" vertex="1" parent="1">
          <mxGeometry x="40" y="575" width="50" height="30" as="geometry" />
        </mxCell>
        <mxCell id="K7zcIh3FPO0Lbh3rbv_w-31" value="deque" style="text;html=1;strokeColor=#82b366;fillColor=#d5e8d4;align=left;verticalAlign=middle;whiteSpace=wrap;rounded=0;" vertex="1" parent="1">
          <mxGeometry x="40" y="640" width="40" height="30" as="geometry" />
        </mxCell>
        <mxCell id="K7zcIh3FPO0Lbh3rbv_w-32" value="result" style="text;html=1;strokeColor=#6c8ebf;fillColor=#dae8fc;align=left;verticalAlign=middle;whiteSpace=wrap;rounded=0;" vertex="1" parent="1">
          <mxGeometry x="40" y="530" width="40" height="30" as="geometry" />
        </mxCell>
        <mxCell id="K7zcIh3FPO0Lbh3rbv_w-33" value="3:-3" style="rounded=0;whiteSpace=wrap;html=1;" vertex="1" parent="1">
          <mxGeometry x="300" y="810" width="40" height="40" as="geometry" />
        </mxCell>
        <mxCell id="K7zcIh3FPO0Lbh3rbv_w-34" value="2:-1" style="rounded=0;whiteSpace=wrap;html=1;" vertex="1" parent="1">
          <mxGeometry x="240" y="810" width="40" height="40" as="geometry" />
        </mxCell>
        <mxCell id="K7zcIh3FPO0Lbh3rbv_w-35" value="1:3" style="rounded=0;whiteSpace=wrap;html=1;" vertex="1" parent="1">
          <mxGeometry x="180" y="810" width="40" height="40" as="geometry" />
        </mxCell>
        <mxCell id="K7zcIh3FPO0Lbh3rbv_w-36" value="0:1" style="rounded=0;whiteSpace=wrap;html=1;" vertex="1" parent="1">
          <mxGeometry x="120" y="810" width="40" height="40" as="geometry" />
        </mxCell>
        <mxCell id="K7zcIh3FPO0Lbh3rbv_w-37" value="4:5" style="rounded=0;whiteSpace=wrap;html=1;" vertex="1" parent="1">
          <mxGeometry x="360" y="810" width="40" height="40" as="geometry" />
        </mxCell>
        <mxCell id="K7zcIh3FPO0Lbh3rbv_w-38" value="5:3" style="rounded=0;whiteSpace=wrap;html=1;" vertex="1" parent="1">
          <mxGeometry x="420" y="810" width="40" height="40" as="geometry" />
        </mxCell>
        <mxCell id="K7zcIh3FPO0Lbh3rbv_w-39" value="6:6" style="rounded=0;whiteSpace=wrap;html=1;" vertex="1" parent="1">
          <mxGeometry x="480" y="810" width="40" height="40" as="geometry" />
        </mxCell>
        <mxCell id="K7zcIh3FPO0Lbh3rbv_w-40" value="7:7" style="rounded=0;whiteSpace=wrap;html=1;" vertex="1" parent="1">
          <mxGeometry x="540" y="810" width="40" height="40" as="geometry" />
        </mxCell>
        <mxCell id="K7zcIh3FPO0Lbh3rbv_w-41" value="0:1" style="rounded=0;whiteSpace=wrap;html=1;fillColor=#d5e8d4;strokeColor=#82b366;" vertex="1" parent="1">
          <mxGeometry x="180" y="940" width="40" height="40" as="geometry" />
        </mxCell>
        <mxCell id="K7zcIh3FPO0Lbh3rbv_w-42" value="&lt;h1&gt;&lt;span style=&quot;background-color: initial; font-size: 12px;&quot;&gt;i = 1&lt;/span&gt;&lt;br&gt;&lt;/h1&gt;" style="text;html=1;strokeColor=none;fillColor=none;spacing=5;spacingTop=-20;whiteSpace=wrap;overflow=hidden;rounded=0;" vertex="1" parent="1">
          <mxGeometry x="40" y="720" width="40" height="40" as="geometry" />
        </mxCell>
        <mxCell id="K7zcIh3FPO0Lbh3rbv_w-43" value="array" style="text;html=1;strokeColor=none;fillColor=none;align=left;verticalAlign=middle;whiteSpace=wrap;rounded=0;fontStyle=0" vertex="1" parent="1">
          <mxGeometry x="40" y="815" width="50" height="30" as="geometry" />
        </mxCell>
        <mxCell id="K7zcIh3FPO0Lbh3rbv_w-44" value="deque" style="text;html=1;strokeColor=#82b366;fillColor=#d5e8d4;align=left;verticalAlign=middle;whiteSpace=wrap;rounded=0;" vertex="1" parent="1">
          <mxGeometry x="40" y="880" width="40" height="30" as="geometry" />
        </mxCell>
        <mxCell id="K7zcIh3FPO0Lbh3rbv_w-45" value="result" style="text;html=1;strokeColor=#6c8ebf;fillColor=#dae8fc;align=left;verticalAlign=middle;whiteSpace=wrap;rounded=0;" vertex="1" parent="1">
          <mxGeometry x="40" y="770" width="40" height="30" as="geometry" />
        </mxCell>
        <mxCell id="K7zcIh3FPO0Lbh3rbv_w-46" value="1:3" style="rounded=0;whiteSpace=wrap;html=1;fillColor=#d5e8d4;strokeColor=#82b366;" vertex="1" parent="1">
          <mxGeometry x="180" y="880" width="40" height="40" as="geometry" />
        </mxCell>
        <mxCell id="K7zcIh3FPO0Lbh3rbv_w-59" value="" style="group" vertex="1" connectable="0" parent="1">
          <mxGeometry x="180" y="940" width="40" height="40" as="geometry" />
        </mxCell>
        <mxCell id="K7zcIh3FPO0Lbh3rbv_w-56" value="" style="endArrow=none;html=1;rounded=0;fillColor=#f8cecc;strokeColor=#b85450;strokeWidth=2;" edge="1" parent="K7zcIh3FPO0Lbh3rbv_w-59">
          <mxGeometry width="50" height="50" relative="1" as="geometry">
            <mxPoint y="40" as="sourcePoint" />
            <mxPoint x="40" as="targetPoint" />
          </mxGeometry>
        </mxCell>
        <mxCell id="K7zcIh3FPO0Lbh3rbv_w-58" value="" style="endArrow=none;html=1;rounded=0;fillColor=#f8cecc;strokeColor=#b85450;strokeWidth=2;" edge="1" parent="K7zcIh3FPO0Lbh3rbv_w-59">
          <mxGeometry width="50" height="50" relative="1" as="geometry">
            <mxPoint as="sourcePoint" />
            <mxPoint x="40" y="40" as="targetPoint" />
          </mxGeometry>
        </mxCell>
        <mxCell id="K7zcIh3FPO0Lbh3rbv_w-63" value="3:-3" style="rounded=0;whiteSpace=wrap;html=1;" vertex="1" parent="1">
          <mxGeometry x="300" y="1090" width="40" height="40" as="geometry" />
        </mxCell>
        <mxCell id="K7zcIh3FPO0Lbh3rbv_w-64" value="2:-1" style="rounded=0;whiteSpace=wrap;html=1;" vertex="1" parent="1">
          <mxGeometry x="240" y="1090" width="40" height="40" as="geometry" />
        </mxCell>
        <mxCell id="K7zcIh3FPO0Lbh3rbv_w-65" value="1:3" style="rounded=0;whiteSpace=wrap;html=1;" vertex="1" parent="1">
          <mxGeometry x="180" y="1090" width="40" height="40" as="geometry" />
        </mxCell>
        <mxCell id="K7zcIh3FPO0Lbh3rbv_w-66" value="0:1" style="rounded=0;whiteSpace=wrap;html=1;" vertex="1" parent="1">
          <mxGeometry x="120" y="1090" width="40" height="40" as="geometry" />
        </mxCell>
        <mxCell id="K7zcIh3FPO0Lbh3rbv_w-67" value="4:5" style="rounded=0;whiteSpace=wrap;html=1;" vertex="1" parent="1">
          <mxGeometry x="360" y="1090" width="40" height="40" as="geometry" />
        </mxCell>
        <mxCell id="K7zcIh3FPO0Lbh3rbv_w-68" value="5:3" style="rounded=0;whiteSpace=wrap;html=1;" vertex="1" parent="1">
          <mxGeometry x="420" y="1090" width="40" height="40" as="geometry" />
        </mxCell>
        <mxCell id="K7zcIh3FPO0Lbh3rbv_w-69" value="6:6" style="rounded=0;whiteSpace=wrap;html=1;" vertex="1" parent="1">
          <mxGeometry x="480" y="1090" width="40" height="40" as="geometry" />
        </mxCell>
        <mxCell id="K7zcIh3FPO0Lbh3rbv_w-70" value="7:7" style="rounded=0;whiteSpace=wrap;html=1;" vertex="1" parent="1">
          <mxGeometry x="540" y="1090" width="40" height="40" as="geometry" />
        </mxCell>
        <mxCell id="K7zcIh3FPO0Lbh3rbv_w-72" value="&lt;h1&gt;&lt;span style=&quot;background-color: initial; font-size: 12px;&quot;&gt;i = 2&lt;/span&gt;&lt;br&gt;&lt;/h1&gt;" style="text;html=1;strokeColor=none;fillColor=none;spacing=5;spacingTop=-20;whiteSpace=wrap;overflow=hidden;rounded=0;" vertex="1" parent="1">
          <mxGeometry x="40" y="1000" width="40" height="40" as="geometry" />
        </mxCell>
        <mxCell id="K7zcIh3FPO0Lbh3rbv_w-73" value="array" style="text;html=1;strokeColor=none;fillColor=none;align=left;verticalAlign=middle;whiteSpace=wrap;rounded=0;fontStyle=0" vertex="1" parent="1">
          <mxGeometry x="40" y="1095" width="50" height="30" as="geometry" />
        </mxCell>
        <mxCell id="K7zcIh3FPO0Lbh3rbv_w-74" value="deque" style="text;html=1;strokeColor=#82b366;fillColor=#d5e8d4;align=left;verticalAlign=middle;whiteSpace=wrap;rounded=0;" vertex="1" parent="1">
          <mxGeometry x="40" y="1160" width="40" height="30" as="geometry" />
        </mxCell>
        <mxCell id="K7zcIh3FPO0Lbh3rbv_w-75" value="result" style="text;html=1;strokeColor=#6c8ebf;fillColor=#dae8fc;align=left;verticalAlign=middle;whiteSpace=wrap;rounded=0;" vertex="1" parent="1">
          <mxGeometry x="40" y="1050" width="40" height="30" as="geometry" />
        </mxCell>
        <mxCell id="K7zcIh3FPO0Lbh3rbv_w-76" value="1:3" style="rounded=0;whiteSpace=wrap;html=1;fillColor=#d5e8d4;strokeColor=#82b366;" vertex="1" parent="1">
          <mxGeometry x="240" y="1160" width="40" height="40" as="geometry" />
        </mxCell>
        <mxCell id="K7zcIh3FPO0Lbh3rbv_w-80" value="2:-1" style="rounded=0;whiteSpace=wrap;html=1;fillColor=#d5e8d4;strokeColor=#82b366;" vertex="1" parent="1">
          <mxGeometry x="240" y="1220" width="40" height="40" as="geometry" />
        </mxCell>
        <mxCell id="K7zcIh3FPO0Lbh3rbv_w-81" value="3" style="rounded=0;whiteSpace=wrap;html=1;fillColor=#dae8fc;strokeColor=#6c8ebf;" vertex="1" parent="1">
          <mxGeometry x="240" y="1040" width="40" height="40" as="geometry" />
        </mxCell>
        <mxCell id="K7zcIh3FPO0Lbh3rbv_w-82" value="" style="endArrow=none;dashed=1;html=1;dashPattern=1 3;strokeWidth=2;rounded=0;" edge="1" parent="1">
          <mxGeometry width="50" height="50" relative="1" as="geometry">
            <mxPoint x="170" y="710" as="sourcePoint" />
            <mxPoint x="170" y="510" as="targetPoint" />
          </mxGeometry>
        </mxCell>
        <mxCell id="K7zcIh3FPO0Lbh3rbv_w-83" value="" style="endArrow=none;dashed=1;html=1;dashPattern=1 3;strokeWidth=2;rounded=0;" edge="1" parent="1">
          <mxGeometry width="50" height="50" relative="1" as="geometry">
            <mxPoint x="229.5" y="980" as="sourcePoint" />
            <mxPoint x="229.5" y="780" as="targetPoint" />
          </mxGeometry>
        </mxCell>
        <mxCell id="K7zcIh3FPO0Lbh3rbv_w-84" value="" style="endArrow=none;dashed=1;html=1;dashPattern=1 3;strokeWidth=2;rounded=0;" edge="1" parent="1">
          <mxGeometry width="50" height="50" relative="1" as="geometry">
            <mxPoint x="290" y="1275" as="sourcePoint" />
            <mxPoint x="290" y="1075" as="targetPoint" />
          </mxGeometry>
        </mxCell>
        <mxCell id="K7zcIh3FPO0Lbh3rbv_w-86" value="3:-3" style="rounded=0;whiteSpace=wrap;html=1;" vertex="1" parent="1">
          <mxGeometry x="300" y="1390" width="40" height="40" as="geometry" />
        </mxCell>
        <mxCell id="K7zcIh3FPO0Lbh3rbv_w-87" value="2:-1" style="rounded=0;whiteSpace=wrap;html=1;" vertex="1" parent="1">
          <mxGeometry x="240" y="1390" width="40" height="40" as="geometry" />
        </mxCell>
        <mxCell id="K7zcIh3FPO0Lbh3rbv_w-88" value="1:3" style="rounded=0;whiteSpace=wrap;html=1;" vertex="1" parent="1">
          <mxGeometry x="180" y="1390" width="40" height="40" as="geometry" />
        </mxCell>
        <mxCell id="K7zcIh3FPO0Lbh3rbv_w-89" value="0:1" style="rounded=0;whiteSpace=wrap;html=1;" vertex="1" parent="1">
          <mxGeometry x="120" y="1390" width="40" height="40" as="geometry" />
        </mxCell>
        <mxCell id="K7zcIh3FPO0Lbh3rbv_w-90" value="4:5" style="rounded=0;whiteSpace=wrap;html=1;" vertex="1" parent="1">
          <mxGeometry x="360" y="1390" width="40" height="40" as="geometry" />
        </mxCell>
        <mxCell id="K7zcIh3FPO0Lbh3rbv_w-91" value="5:3" style="rounded=0;whiteSpace=wrap;html=1;" vertex="1" parent="1">
          <mxGeometry x="420" y="1390" width="40" height="40" as="geometry" />
        </mxCell>
        <mxCell id="K7zcIh3FPO0Lbh3rbv_w-92" value="6:6" style="rounded=0;whiteSpace=wrap;html=1;" vertex="1" parent="1">
          <mxGeometry x="480" y="1390" width="40" height="40" as="geometry" />
        </mxCell>
        <mxCell id="K7zcIh3FPO0Lbh3rbv_w-93" value="7:7" style="rounded=0;whiteSpace=wrap;html=1;" vertex="1" parent="1">
          <mxGeometry x="540" y="1390" width="40" height="40" as="geometry" />
        </mxCell>
        <mxCell id="K7zcIh3FPO0Lbh3rbv_w-94" value="&lt;h1&gt;&lt;span style=&quot;background-color: initial; font-size: 12px;&quot;&gt;i = 3&lt;/span&gt;&lt;br&gt;&lt;/h1&gt;" style="text;html=1;strokeColor=none;fillColor=none;spacing=5;spacingTop=-20;whiteSpace=wrap;overflow=hidden;rounded=0;" vertex="1" parent="1">
          <mxGeometry x="40" y="1300" width="40" height="40" as="geometry" />
        </mxCell>
        <mxCell id="K7zcIh3FPO0Lbh3rbv_w-95" value="array" style="text;html=1;strokeColor=none;fillColor=none;align=left;verticalAlign=middle;whiteSpace=wrap;rounded=0;fontStyle=0" vertex="1" parent="1">
          <mxGeometry x="40" y="1395" width="50" height="30" as="geometry" />
        </mxCell>
        <mxCell id="K7zcIh3FPO0Lbh3rbv_w-96" value="deque" style="text;html=1;strokeColor=#82b366;fillColor=#d5e8d4;align=left;verticalAlign=middle;whiteSpace=wrap;rounded=0;" vertex="1" parent="1">
          <mxGeometry x="40" y="1460" width="40" height="30" as="geometry" />
        </mxCell>
        <mxCell id="K7zcIh3FPO0Lbh3rbv_w-97" value="result" style="text;html=1;strokeColor=#6c8ebf;fillColor=#dae8fc;align=left;verticalAlign=middle;whiteSpace=wrap;rounded=0;" vertex="1" parent="1">
          <mxGeometry x="40" y="1350" width="40" height="30" as="geometry" />
        </mxCell>
        <mxCell id="K7zcIh3FPO0Lbh3rbv_w-98" value="1:3" style="rounded=0;whiteSpace=wrap;html=1;fillColor=#d5e8d4;strokeColor=#82b366;" vertex="1" parent="1">
          <mxGeometry x="300" y="1460" width="40" height="40" as="geometry" />
        </mxCell>
        <mxCell id="K7zcIh3FPO0Lbh3rbv_w-99" value="2:-1" style="rounded=0;whiteSpace=wrap;html=1;fillColor=#d5e8d4;strokeColor=#82b366;" vertex="1" parent="1">
          <mxGeometry x="300" y="1520" width="40" height="40" as="geometry" />
        </mxCell>
        <mxCell id="K7zcIh3FPO0Lbh3rbv_w-100" value="3" style="rounded=0;whiteSpace=wrap;html=1;fillColor=#dae8fc;strokeColor=#6c8ebf;" vertex="1" parent="1">
          <mxGeometry x="240" y="1340" width="40" height="40" as="geometry" />
        </mxCell>
        <mxCell id="K7zcIh3FPO0Lbh3rbv_w-101" value="" style="endArrow=none;dashed=1;html=1;dashPattern=1 3;strokeWidth=2;rounded=0;" edge="1" parent="1">
          <mxGeometry width="50" height="50" relative="1" as="geometry">
            <mxPoint x="350" y="1590" as="sourcePoint" />
            <mxPoint x="350" y="1390" as="targetPoint" />
          </mxGeometry>
        </mxCell>
        <mxCell id="K7zcIh3FPO0Lbh3rbv_w-102" value="" style="endArrow=none;dashed=1;html=1;dashPattern=1 3;strokeWidth=2;rounded=0;" edge="1" parent="1">
          <mxGeometry width="50" height="50" relative="1" as="geometry">
            <mxPoint x="170" y="1590" as="sourcePoint" />
            <mxPoint x="170" y="1390" as="targetPoint" />
          </mxGeometry>
        </mxCell>
        <mxCell id="K7zcIh3FPO0Lbh3rbv_w-103" value="3:-3" style="rounded=0;whiteSpace=wrap;html=1;fillColor=#d5e8d4;strokeColor=#82b366;" vertex="1" parent="1">
          <mxGeometry x="300" y="1580" width="40" height="40" as="geometry" />
        </mxCell>
        <mxCell id="K7zcIh3FPO0Lbh3rbv_w-104" value="3" style="rounded=0;whiteSpace=wrap;html=1;fillColor=#dae8fc;strokeColor=#6c8ebf;" vertex="1" parent="1">
          <mxGeometry x="300" y="1340" width="40" height="40" as="geometry" />
        </mxCell>
        <mxCell id="K7zcIh3FPO0Lbh3rbv_w-105" value="3:-3" style="rounded=0;whiteSpace=wrap;html=1;" vertex="1" parent="1">
          <mxGeometry x="300" y="1750" width="40" height="40" as="geometry" />
        </mxCell>
        <mxCell id="K7zcIh3FPO0Lbh3rbv_w-106" value="2:-1" style="rounded=0;whiteSpace=wrap;html=1;" vertex="1" parent="1">
          <mxGeometry x="240" y="1750" width="40" height="40" as="geometry" />
        </mxCell>
        <mxCell id="K7zcIh3FPO0Lbh3rbv_w-107" value="1:3" style="rounded=0;whiteSpace=wrap;html=1;" vertex="1" parent="1">
          <mxGeometry x="180" y="1750" width="40" height="40" as="geometry" />
        </mxCell>
        <mxCell id="K7zcIh3FPO0Lbh3rbv_w-108" value="0:1" style="rounded=0;whiteSpace=wrap;html=1;" vertex="1" parent="1">
          <mxGeometry x="120" y="1750" width="40" height="40" as="geometry" />
        </mxCell>
        <mxCell id="K7zcIh3FPO0Lbh3rbv_w-109" value="4:5" style="rounded=0;whiteSpace=wrap;html=1;" vertex="1" parent="1">
          <mxGeometry x="360" y="1750" width="40" height="40" as="geometry" />
        </mxCell>
        <mxCell id="K7zcIh3FPO0Lbh3rbv_w-110" value="5:3" style="rounded=0;whiteSpace=wrap;html=1;" vertex="1" parent="1">
          <mxGeometry x="420" y="1750" width="40" height="40" as="geometry" />
        </mxCell>
        <mxCell id="K7zcIh3FPO0Lbh3rbv_w-111" value="6:6" style="rounded=0;whiteSpace=wrap;html=1;" vertex="1" parent="1">
          <mxGeometry x="480" y="1750" width="40" height="40" as="geometry" />
        </mxCell>
        <mxCell id="K7zcIh3FPO0Lbh3rbv_w-112" value="7:7" style="rounded=0;whiteSpace=wrap;html=1;" vertex="1" parent="1">
          <mxGeometry x="540" y="1750" width="40" height="40" as="geometry" />
        </mxCell>
        <mxCell id="K7zcIh3FPO0Lbh3rbv_w-113" value="&lt;h1&gt;&lt;span style=&quot;background-color: initial; font-size: 12px;&quot;&gt;i = 4&lt;/span&gt;&lt;br&gt;&lt;/h1&gt;" style="text;html=1;strokeColor=none;fillColor=none;spacing=5;spacingTop=-20;whiteSpace=wrap;overflow=hidden;rounded=0;" vertex="1" parent="1">
          <mxGeometry x="40" y="1660" width="40" height="40" as="geometry" />
        </mxCell>
        <mxCell id="K7zcIh3FPO0Lbh3rbv_w-114" value="array" style="text;html=1;strokeColor=none;fillColor=none;align=left;verticalAlign=middle;whiteSpace=wrap;rounded=0;fontStyle=0" vertex="1" parent="1">
          <mxGeometry x="40" y="1755" width="50" height="30" as="geometry" />
        </mxCell>
        <mxCell id="K7zcIh3FPO0Lbh3rbv_w-115" value="deque" style="text;html=1;strokeColor=#82b366;fillColor=#d5e8d4;align=left;verticalAlign=middle;whiteSpace=wrap;rounded=0;" vertex="1" parent="1">
          <mxGeometry x="40" y="1820" width="40" height="30" as="geometry" />
        </mxCell>
        <mxCell id="K7zcIh3FPO0Lbh3rbv_w-116" value="result" style="text;html=1;strokeColor=#6c8ebf;fillColor=#dae8fc;align=left;verticalAlign=middle;whiteSpace=wrap;rounded=0;" vertex="1" parent="1">
          <mxGeometry x="40" y="1710" width="40" height="30" as="geometry" />
        </mxCell>
        <mxCell id="K7zcIh3FPO0Lbh3rbv_w-117" value="1:3" style="rounded=0;whiteSpace=wrap;html=1;fillColor=#d5e8d4;strokeColor=#82b366;" vertex="1" parent="1">
          <mxGeometry x="360" y="1860" width="40" height="40" as="geometry" />
        </mxCell>
        <mxCell id="K7zcIh3FPO0Lbh3rbv_w-118" value="2:-1" style="rounded=0;whiteSpace=wrap;html=1;fillColor=#d5e8d4;strokeColor=#82b366;" vertex="1" parent="1">
          <mxGeometry x="360" y="1920" width="40" height="40" as="geometry" />
        </mxCell>
        <mxCell id="K7zcIh3FPO0Lbh3rbv_w-119" value="3" style="rounded=0;whiteSpace=wrap;html=1;fillColor=#dae8fc;strokeColor=#6c8ebf;" vertex="1" parent="1">
          <mxGeometry x="240" y="1700" width="40" height="40" as="geometry" />
        </mxCell>
        <mxCell id="K7zcIh3FPO0Lbh3rbv_w-120" value="" style="endArrow=none;dashed=1;html=1;dashPattern=1 3;strokeWidth=2;rounded=0;" edge="1" parent="1">
          <mxGeometry width="50" height="50" relative="1" as="geometry">
            <mxPoint x="410" y="1950" as="sourcePoint" />
            <mxPoint x="410" y="1750" as="targetPoint" />
          </mxGeometry>
        </mxCell>
        <mxCell id="K7zcIh3FPO0Lbh3rbv_w-121" value="" style="endArrow=none;dashed=1;html=1;dashPattern=1 3;strokeWidth=2;rounded=0;" edge="1" parent="1">
          <mxGeometry width="50" height="50" relative="1" as="geometry">
            <mxPoint x="229.5" y="1950" as="sourcePoint" />
            <mxPoint x="229.5" y="1750" as="targetPoint" />
          </mxGeometry>
        </mxCell>
        <mxCell id="K7zcIh3FPO0Lbh3rbv_w-122" value="3:-3" style="rounded=0;whiteSpace=wrap;html=1;fillColor=#d5e8d4;strokeColor=#82b366;" vertex="1" parent="1">
          <mxGeometry x="360" y="1980" width="40" height="40" as="geometry" />
        </mxCell>
        <mxCell id="K7zcIh3FPO0Lbh3rbv_w-123" value="3" style="rounded=0;whiteSpace=wrap;html=1;fillColor=#dae8fc;strokeColor=#6c8ebf;" vertex="1" parent="1">
          <mxGeometry x="300" y="1700" width="40" height="40" as="geometry" />
        </mxCell>
        <mxCell id="K7zcIh3FPO0Lbh3rbv_w-124" value="" style="group" vertex="1" connectable="0" parent="1">
          <mxGeometry x="360" y="1860" width="40" height="40" as="geometry" />
        </mxCell>
        <mxCell id="K7zcIh3FPO0Lbh3rbv_w-125" value="" style="endArrow=none;html=1;rounded=0;fillColor=#f8cecc;strokeColor=#b85450;strokeWidth=2;" edge="1" parent="K7zcIh3FPO0Lbh3rbv_w-124">
          <mxGeometry width="50" height="50" relative="1" as="geometry">
            <mxPoint y="40" as="sourcePoint" />
            <mxPoint x="40" as="targetPoint" />
          </mxGeometry>
        </mxCell>
        <mxCell id="K7zcIh3FPO0Lbh3rbv_w-126" value="" style="endArrow=none;html=1;rounded=0;fillColor=#f8cecc;strokeColor=#b85450;strokeWidth=2;" edge="1" parent="K7zcIh3FPO0Lbh3rbv_w-124">
          <mxGeometry width="50" height="50" relative="1" as="geometry">
            <mxPoint as="sourcePoint" />
            <mxPoint x="40" y="40" as="targetPoint" />
          </mxGeometry>
        </mxCell>
        <mxCell id="K7zcIh3FPO0Lbh3rbv_w-130" value="" style="group" vertex="1" connectable="0" parent="1">
          <mxGeometry x="360" y="1920" width="40" height="40" as="geometry" />
        </mxCell>
        <mxCell id="K7zcIh3FPO0Lbh3rbv_w-131" value="" style="endArrow=none;html=1;rounded=0;fillColor=#f8cecc;strokeColor=#b85450;strokeWidth=2;" edge="1" parent="K7zcIh3FPO0Lbh3rbv_w-130">
          <mxGeometry width="50" height="50" relative="1" as="geometry">
            <mxPoint y="40" as="sourcePoint" />
            <mxPoint x="40" as="targetPoint" />
          </mxGeometry>
        </mxCell>
        <mxCell id="K7zcIh3FPO0Lbh3rbv_w-132" value="" style="endArrow=none;html=1;rounded=0;fillColor=#f8cecc;strokeColor=#b85450;strokeWidth=2;" edge="1" parent="K7zcIh3FPO0Lbh3rbv_w-130">
          <mxGeometry width="50" height="50" relative="1" as="geometry">
            <mxPoint as="sourcePoint" />
            <mxPoint x="40" y="40" as="targetPoint" />
          </mxGeometry>
        </mxCell>
        <mxCell id="K7zcIh3FPO0Lbh3rbv_w-133" value="" style="group" vertex="1" connectable="0" parent="1">
          <mxGeometry x="360" y="1980" width="40" height="40" as="geometry" />
        </mxCell>
        <mxCell id="K7zcIh3FPO0Lbh3rbv_w-134" value="" style="endArrow=none;html=1;rounded=0;fillColor=#f8cecc;strokeColor=#b85450;strokeWidth=2;" edge="1" parent="K7zcIh3FPO0Lbh3rbv_w-133">
          <mxGeometry width="50" height="50" relative="1" as="geometry">
            <mxPoint y="40" as="sourcePoint" />
            <mxPoint x="40" as="targetPoint" />
          </mxGeometry>
        </mxCell>
        <mxCell id="K7zcIh3FPO0Lbh3rbv_w-135" value="" style="endArrow=none;html=1;rounded=0;fillColor=#f8cecc;strokeColor=#b85450;strokeWidth=2;" edge="1" parent="K7zcIh3FPO0Lbh3rbv_w-133">
          <mxGeometry width="50" height="50" relative="1" as="geometry">
            <mxPoint as="sourcePoint" />
            <mxPoint x="40" y="40" as="targetPoint" />
          </mxGeometry>
        </mxCell>
        <mxCell id="K7zcIh3FPO0Lbh3rbv_w-136" value="not in window" style="text;html=1;strokeColor=none;fillColor=none;align=center;verticalAlign=middle;whiteSpace=wrap;rounded=0;fontStyle=2" vertex="1" parent="1">
          <mxGeometry x="260" y="1865" width="80" height="30" as="geometry" />
        </mxCell>
        <mxCell id="K7zcIh3FPO0Lbh3rbv_w-137" value="smaller than current" style="text;html=1;strokeColor=none;fillColor=none;align=center;verticalAlign=middle;whiteSpace=wrap;rounded=0;fontStyle=2" vertex="1" parent="1">
          <mxGeometry x="260" y="1925" width="80" height="30" as="geometry" />
        </mxCell>
        <mxCell id="K7zcIh3FPO0Lbh3rbv_w-138" value="smaller than current" style="text;html=1;strokeColor=none;fillColor=none;align=center;verticalAlign=middle;whiteSpace=wrap;rounded=0;fontStyle=2" vertex="1" parent="1">
          <mxGeometry x="260" y="1985" width="80" height="30" as="geometry" />
        </mxCell>
        <mxCell id="K7zcIh3FPO0Lbh3rbv_w-139" value="4:5" style="rounded=0;whiteSpace=wrap;html=1;fillColor=#d5e8d4;strokeColor=#82b366;" vertex="1" parent="1">
          <mxGeometry x="360" y="1810" width="40" height="40" as="geometry" />
        </mxCell>
        <mxCell id="K7zcIh3FPO0Lbh3rbv_w-140" value="5" style="rounded=0;whiteSpace=wrap;html=1;fillColor=#dae8fc;strokeColor=#6c8ebf;" vertex="1" parent="1">
          <mxGeometry x="360" y="1700" width="40" height="40" as="geometry" />
        </mxCell>
        <mxCell id="K7zcIh3FPO0Lbh3rbv_w-141" value="3:-3" style="rounded=0;whiteSpace=wrap;html=1;" vertex="1" parent="1">
          <mxGeometry x="300" y="2170" width="40" height="40" as="geometry" />
        </mxCell>
        <mxCell id="K7zcIh3FPO0Lbh3rbv_w-142" value="2:-1" style="rounded=0;whiteSpace=wrap;html=1;" vertex="1" parent="1">
          <mxGeometry x="240" y="2170" width="40" height="40" as="geometry" />
        </mxCell>
        <mxCell id="K7zcIh3FPO0Lbh3rbv_w-143" value="1:3" style="rounded=0;whiteSpace=wrap;html=1;" vertex="1" parent="1">
          <mxGeometry x="180" y="2170" width="40" height="40" as="geometry" />
        </mxCell>
        <mxCell id="K7zcIh3FPO0Lbh3rbv_w-144" value="0:1" style="rounded=0;whiteSpace=wrap;html=1;" vertex="1" parent="1">
          <mxGeometry x="120" y="2170" width="40" height="40" as="geometry" />
        </mxCell>
        <mxCell id="K7zcIh3FPO0Lbh3rbv_w-145" value="4:5" style="rounded=0;whiteSpace=wrap;html=1;" vertex="1" parent="1">
          <mxGeometry x="360" y="2170" width="40" height="40" as="geometry" />
        </mxCell>
        <mxCell id="K7zcIh3FPO0Lbh3rbv_w-146" value="5:3" style="rounded=0;whiteSpace=wrap;html=1;" vertex="1" parent="1">
          <mxGeometry x="420" y="2170" width="40" height="40" as="geometry" />
        </mxCell>
        <mxCell id="K7zcIh3FPO0Lbh3rbv_w-147" value="6:6" style="rounded=0;whiteSpace=wrap;html=1;" vertex="1" parent="1">
          <mxGeometry x="480" y="2170" width="40" height="40" as="geometry" />
        </mxCell>
        <mxCell id="K7zcIh3FPO0Lbh3rbv_w-148" value="7:7" style="rounded=0;whiteSpace=wrap;html=1;" vertex="1" parent="1">
          <mxGeometry x="540" y="2170" width="40" height="40" as="geometry" />
        </mxCell>
        <mxCell id="K7zcIh3FPO0Lbh3rbv_w-149" value="&lt;h1&gt;&lt;span style=&quot;background-color: initial; font-size: 12px;&quot;&gt;i = 5&lt;/span&gt;&lt;br&gt;&lt;/h1&gt;" style="text;html=1;strokeColor=none;fillColor=none;spacing=5;spacingTop=-20;whiteSpace=wrap;overflow=hidden;rounded=0;" vertex="1" parent="1">
          <mxGeometry x="40" y="2080" width="40" height="40" as="geometry" />
        </mxCell>
        <mxCell id="K7zcIh3FPO0Lbh3rbv_w-150" value="array" style="text;html=1;strokeColor=none;fillColor=none;align=left;verticalAlign=middle;whiteSpace=wrap;rounded=0;fontStyle=0" vertex="1" parent="1">
          <mxGeometry x="40" y="2175" width="50" height="30" as="geometry" />
        </mxCell>
        <mxCell id="K7zcIh3FPO0Lbh3rbv_w-151" value="deque" style="text;html=1;strokeColor=#82b366;fillColor=#d5e8d4;align=left;verticalAlign=middle;whiteSpace=wrap;rounded=0;" vertex="1" parent="1">
          <mxGeometry x="40" y="2240" width="40" height="30" as="geometry" />
        </mxCell>
        <mxCell id="K7zcIh3FPO0Lbh3rbv_w-152" value="result" style="text;html=1;strokeColor=#6c8ebf;fillColor=#dae8fc;align=left;verticalAlign=middle;whiteSpace=wrap;rounded=0;" vertex="1" parent="1">
          <mxGeometry x="40" y="2130" width="40" height="30" as="geometry" />
        </mxCell>
        <mxCell id="K7zcIh3FPO0Lbh3rbv_w-155" value="3" style="rounded=0;whiteSpace=wrap;html=1;fillColor=#dae8fc;strokeColor=#6c8ebf;" vertex="1" parent="1">
          <mxGeometry x="240" y="2120" width="40" height="40" as="geometry" />
        </mxCell>
        <mxCell id="K7zcIh3FPO0Lbh3rbv_w-156" value="" style="endArrow=none;dashed=1;html=1;dashPattern=1 3;strokeWidth=2;rounded=0;" edge="1" parent="1">
          <mxGeometry width="50" height="50" relative="1" as="geometry">
            <mxPoint x="470" y="2370" as="sourcePoint" />
            <mxPoint x="470" y="2170" as="targetPoint" />
          </mxGeometry>
        </mxCell>
        <mxCell id="K7zcIh3FPO0Lbh3rbv_w-157" value="" style="endArrow=none;dashed=1;html=1;dashPattern=1 3;strokeWidth=2;rounded=0;" edge="1" parent="1">
          <mxGeometry width="50" height="50" relative="1" as="geometry">
            <mxPoint x="290" y="2370" as="sourcePoint" />
            <mxPoint x="290" y="2170" as="targetPoint" />
          </mxGeometry>
        </mxCell>
        <mxCell id="K7zcIh3FPO0Lbh3rbv_w-159" value="3" style="rounded=0;whiteSpace=wrap;html=1;fillColor=#dae8fc;strokeColor=#6c8ebf;" vertex="1" parent="1">
          <mxGeometry x="300" y="2120" width="40" height="40" as="geometry" />
        </mxCell>
        <mxCell id="K7zcIh3FPO0Lbh3rbv_w-172" value="4:5" style="rounded=0;whiteSpace=wrap;html=1;fillColor=#d5e8d4;strokeColor=#82b366;" vertex="1" parent="1">
          <mxGeometry x="420" y="2230" width="40" height="40" as="geometry" />
        </mxCell>
        <mxCell id="K7zcIh3FPO0Lbh3rbv_w-173" value="5" style="rounded=0;whiteSpace=wrap;html=1;fillColor=#dae8fc;strokeColor=#6c8ebf;" vertex="1" parent="1">
          <mxGeometry x="360" y="2120" width="40" height="40" as="geometry" />
        </mxCell>
        <mxCell id="K7zcIh3FPO0Lbh3rbv_w-174" value="5:3" style="rounded=0;whiteSpace=wrap;html=1;fillColor=#d5e8d4;strokeColor=#82b366;" vertex="1" parent="1">
          <mxGeometry x="420" y="2290" width="40" height="40" as="geometry" />
        </mxCell>
        <mxCell id="K7zcIh3FPO0Lbh3rbv_w-175" value="5" style="rounded=0;whiteSpace=wrap;html=1;fillColor=#dae8fc;strokeColor=#6c8ebf;" vertex="1" parent="1">
          <mxGeometry x="420" y="2120" width="40" height="40" as="geometry" />
        </mxCell>
        <mxCell id="K7zcIh3FPO0Lbh3rbv_w-176" value="3:-3" style="rounded=0;whiteSpace=wrap;html=1;" vertex="1" parent="1">
          <mxGeometry x="300" y="2500" width="40" height="40" as="geometry" />
        </mxCell>
        <mxCell id="K7zcIh3FPO0Lbh3rbv_w-177" value="2:-1" style="rounded=0;whiteSpace=wrap;html=1;" vertex="1" parent="1">
          <mxGeometry x="240" y="2500" width="40" height="40" as="geometry" />
        </mxCell>
        <mxCell id="K7zcIh3FPO0Lbh3rbv_w-178" value="1:3" style="rounded=0;whiteSpace=wrap;html=1;" vertex="1" parent="1">
          <mxGeometry x="180" y="2500" width="40" height="40" as="geometry" />
        </mxCell>
        <mxCell id="K7zcIh3FPO0Lbh3rbv_w-179" value="0:1" style="rounded=0;whiteSpace=wrap;html=1;" vertex="1" parent="1">
          <mxGeometry x="120" y="2500" width="40" height="40" as="geometry" />
        </mxCell>
        <mxCell id="K7zcIh3FPO0Lbh3rbv_w-180" value="4:5" style="rounded=0;whiteSpace=wrap;html=1;" vertex="1" parent="1">
          <mxGeometry x="360" y="2500" width="40" height="40" as="geometry" />
        </mxCell>
        <mxCell id="K7zcIh3FPO0Lbh3rbv_w-181" value="5:3" style="rounded=0;whiteSpace=wrap;html=1;" vertex="1" parent="1">
          <mxGeometry x="420" y="2500" width="40" height="40" as="geometry" />
        </mxCell>
        <mxCell id="K7zcIh3FPO0Lbh3rbv_w-182" value="6:6" style="rounded=0;whiteSpace=wrap;html=1;" vertex="1" parent="1">
          <mxGeometry x="480" y="2500" width="40" height="40" as="geometry" />
        </mxCell>
        <mxCell id="K7zcIh3FPO0Lbh3rbv_w-183" value="7:7" style="rounded=0;whiteSpace=wrap;html=1;" vertex="1" parent="1">
          <mxGeometry x="540" y="2500" width="40" height="40" as="geometry" />
        </mxCell>
        <mxCell id="K7zcIh3FPO0Lbh3rbv_w-184" value="&lt;h1&gt;&lt;span style=&quot;background-color: initial; font-size: 12px;&quot;&gt;i = 6&lt;/span&gt;&lt;br&gt;&lt;/h1&gt;" style="text;html=1;strokeColor=none;fillColor=none;spacing=5;spacingTop=-20;whiteSpace=wrap;overflow=hidden;rounded=0;" vertex="1" parent="1">
          <mxGeometry x="40" y="2410" width="40" height="40" as="geometry" />
        </mxCell>
        <mxCell id="K7zcIh3FPO0Lbh3rbv_w-185" value="array" style="text;html=1;strokeColor=none;fillColor=none;align=left;verticalAlign=middle;whiteSpace=wrap;rounded=0;fontStyle=0" vertex="1" parent="1">
          <mxGeometry x="40" y="2505" width="50" height="30" as="geometry" />
        </mxCell>
        <mxCell id="K7zcIh3FPO0Lbh3rbv_w-186" value="deque" style="text;html=1;strokeColor=#82b366;fillColor=#d5e8d4;align=left;verticalAlign=middle;whiteSpace=wrap;rounded=0;" vertex="1" parent="1">
          <mxGeometry x="40" y="2570" width="40" height="30" as="geometry" />
        </mxCell>
        <mxCell id="K7zcIh3FPO0Lbh3rbv_w-187" value="result" style="text;html=1;strokeColor=#6c8ebf;fillColor=#dae8fc;align=left;verticalAlign=middle;whiteSpace=wrap;rounded=0;" vertex="1" parent="1">
          <mxGeometry x="40" y="2460" width="40" height="30" as="geometry" />
        </mxCell>
        <mxCell id="K7zcIh3FPO0Lbh3rbv_w-188" value="3" style="rounded=0;whiteSpace=wrap;html=1;fillColor=#dae8fc;strokeColor=#6c8ebf;" vertex="1" parent="1">
          <mxGeometry x="240" y="2450" width="40" height="40" as="geometry" />
        </mxCell>
        <mxCell id="K7zcIh3FPO0Lbh3rbv_w-189" value="" style="endArrow=none;dashed=1;html=1;dashPattern=1 3;strokeWidth=2;rounded=0;" edge="1" parent="1">
          <mxGeometry width="50" height="50" relative="1" as="geometry">
            <mxPoint x="530" y="2700" as="sourcePoint" />
            <mxPoint x="530" y="2500" as="targetPoint" />
          </mxGeometry>
        </mxCell>
        <mxCell id="K7zcIh3FPO0Lbh3rbv_w-190" value="" style="endArrow=none;dashed=1;html=1;dashPattern=1 3;strokeWidth=2;rounded=0;" edge="1" parent="1">
          <mxGeometry width="50" height="50" relative="1" as="geometry">
            <mxPoint x="350" y="2700" as="sourcePoint" />
            <mxPoint x="350" y="2500" as="targetPoint" />
          </mxGeometry>
        </mxCell>
        <mxCell id="K7zcIh3FPO0Lbh3rbv_w-191" value="3" style="rounded=0;whiteSpace=wrap;html=1;fillColor=#dae8fc;strokeColor=#6c8ebf;" vertex="1" parent="1">
          <mxGeometry x="300" y="2450" width="40" height="40" as="geometry" />
        </mxCell>
        <mxCell id="K7zcIh3FPO0Lbh3rbv_w-192" value="4:5" style="rounded=0;whiteSpace=wrap;html=1;fillColor=#d5e8d4;strokeColor=#82b366;" vertex="1" parent="1">
          <mxGeometry x="480" y="2620" width="40" height="40" as="geometry" />
        </mxCell>
        <mxCell id="K7zcIh3FPO0Lbh3rbv_w-193" value="5" style="rounded=0;whiteSpace=wrap;html=1;fillColor=#dae8fc;strokeColor=#6c8ebf;" vertex="1" parent="1">
          <mxGeometry x="360" y="2450" width="40" height="40" as="geometry" />
        </mxCell>
        <mxCell id="K7zcIh3FPO0Lbh3rbv_w-194" value="5:3" style="rounded=0;whiteSpace=wrap;html=1;fillColor=#d5e8d4;strokeColor=#82b366;" vertex="1" parent="1">
          <mxGeometry x="480" y="2680" width="40" height="40" as="geometry" />
        </mxCell>
        <mxCell id="K7zcIh3FPO0Lbh3rbv_w-195" value="5" style="rounded=0;whiteSpace=wrap;html=1;fillColor=#dae8fc;strokeColor=#6c8ebf;" vertex="1" parent="1">
          <mxGeometry x="420" y="2450" width="40" height="40" as="geometry" />
        </mxCell>
        <mxCell id="K7zcIh3FPO0Lbh3rbv_w-196" value="" style="group" vertex="1" connectable="0" parent="1">
          <mxGeometry x="480" y="2620" width="40" height="40" as="geometry" />
        </mxCell>
        <mxCell id="K7zcIh3FPO0Lbh3rbv_w-197" value="" style="endArrow=none;html=1;rounded=0;fillColor=#f8cecc;strokeColor=#b85450;strokeWidth=2;" edge="1" parent="K7zcIh3FPO0Lbh3rbv_w-196">
          <mxGeometry width="50" height="50" relative="1" as="geometry">
            <mxPoint y="40" as="sourcePoint" />
            <mxPoint x="40" as="targetPoint" />
          </mxGeometry>
        </mxCell>
        <mxCell id="K7zcIh3FPO0Lbh3rbv_w-198" value="" style="endArrow=none;html=1;rounded=0;fillColor=#f8cecc;strokeColor=#b85450;strokeWidth=2;" edge="1" parent="K7zcIh3FPO0Lbh3rbv_w-196">
          <mxGeometry width="50" height="50" relative="1" as="geometry">
            <mxPoint as="sourcePoint" />
            <mxPoint x="40" y="40" as="targetPoint" />
          </mxGeometry>
        </mxCell>
        <mxCell id="K7zcIh3FPO0Lbh3rbv_w-199" value="" style="group" vertex="1" connectable="0" parent="1">
          <mxGeometry x="480" y="2680" width="40" height="40" as="geometry" />
        </mxCell>
        <mxCell id="K7zcIh3FPO0Lbh3rbv_w-200" value="" style="endArrow=none;html=1;rounded=0;fillColor=#f8cecc;strokeColor=#b85450;strokeWidth=2;" edge="1" parent="K7zcIh3FPO0Lbh3rbv_w-199">
          <mxGeometry width="50" height="50" relative="1" as="geometry">
            <mxPoint y="40" as="sourcePoint" />
            <mxPoint x="40" as="targetPoint" />
          </mxGeometry>
        </mxCell>
        <mxCell id="K7zcIh3FPO0Lbh3rbv_w-201" value="" style="endArrow=none;html=1;rounded=0;fillColor=#f8cecc;strokeColor=#b85450;strokeWidth=2;" edge="1" parent="K7zcIh3FPO0Lbh3rbv_w-199">
          <mxGeometry width="50" height="50" relative="1" as="geometry">
            <mxPoint as="sourcePoint" />
            <mxPoint x="40" y="40" as="targetPoint" />
          </mxGeometry>
        </mxCell>
        <mxCell id="K7zcIh3FPO0Lbh3rbv_w-202" value="smaller than current" style="text;html=1;strokeColor=none;fillColor=none;align=center;verticalAlign=middle;whiteSpace=wrap;rounded=0;fontStyle=2" vertex="1" parent="1">
          <mxGeometry x="380" y="2625" width="80" height="30" as="geometry" />
        </mxCell>
        <mxCell id="K7zcIh3FPO0Lbh3rbv_w-203" value="smaller than current" style="text;html=1;strokeColor=none;fillColor=none;align=center;verticalAlign=middle;whiteSpace=wrap;rounded=0;fontStyle=2" vertex="1" parent="1">
          <mxGeometry x="380" y="2685" width="80" height="30" as="geometry" />
        </mxCell>
        <mxCell id="K7zcIh3FPO0Lbh3rbv_w-204" value="6:6" style="rounded=0;whiteSpace=wrap;html=1;fillColor=#d5e8d4;strokeColor=#82b366;" vertex="1" parent="1">
          <mxGeometry x="480" y="2570" width="40" height="40" as="geometry" />
        </mxCell>
        <mxCell id="K7zcIh3FPO0Lbh3rbv_w-205" value="6" style="rounded=0;whiteSpace=wrap;html=1;fillColor=#dae8fc;strokeColor=#6c8ebf;" vertex="1" parent="1">
          <mxGeometry x="480" y="2450" width="40" height="40" as="geometry" />
        </mxCell>
        <mxCell id="K7zcIh3FPO0Lbh3rbv_w-206" value="3:-3" style="rounded=0;whiteSpace=wrap;html=1;" vertex="1" parent="1">
          <mxGeometry x="300" y="2850" width="40" height="40" as="geometry" />
        </mxCell>
        <mxCell id="K7zcIh3FPO0Lbh3rbv_w-207" value="2:-1" style="rounded=0;whiteSpace=wrap;html=1;" vertex="1" parent="1">
          <mxGeometry x="240" y="2850" width="40" height="40" as="geometry" />
        </mxCell>
        <mxCell id="K7zcIh3FPO0Lbh3rbv_w-208" value="1:3" style="rounded=0;whiteSpace=wrap;html=1;" vertex="1" parent="1">
          <mxGeometry x="180" y="2850" width="40" height="40" as="geometry" />
        </mxCell>
        <mxCell id="K7zcIh3FPO0Lbh3rbv_w-209" value="0:1" style="rounded=0;whiteSpace=wrap;html=1;" vertex="1" parent="1">
          <mxGeometry x="120" y="2850" width="40" height="40" as="geometry" />
        </mxCell>
        <mxCell id="K7zcIh3FPO0Lbh3rbv_w-210" value="4:5" style="rounded=0;whiteSpace=wrap;html=1;" vertex="1" parent="1">
          <mxGeometry x="360" y="2850" width="40" height="40" as="geometry" />
        </mxCell>
        <mxCell id="K7zcIh3FPO0Lbh3rbv_w-211" value="5:3" style="rounded=0;whiteSpace=wrap;html=1;" vertex="1" parent="1">
          <mxGeometry x="420" y="2850" width="40" height="40" as="geometry" />
        </mxCell>
        <mxCell id="K7zcIh3FPO0Lbh3rbv_w-212" value="6:6" style="rounded=0;whiteSpace=wrap;html=1;" vertex="1" parent="1">
          <mxGeometry x="480" y="2850" width="40" height="40" as="geometry" />
        </mxCell>
        <mxCell id="K7zcIh3FPO0Lbh3rbv_w-213" value="7:7" style="rounded=0;whiteSpace=wrap;html=1;" vertex="1" parent="1">
          <mxGeometry x="540" y="2850" width="40" height="40" as="geometry" />
        </mxCell>
        <mxCell id="K7zcIh3FPO0Lbh3rbv_w-214" value="array" style="text;html=1;strokeColor=none;fillColor=none;align=left;verticalAlign=middle;whiteSpace=wrap;rounded=0;fontStyle=0" vertex="1" parent="1">
          <mxGeometry x="40" y="2855" width="50" height="30" as="geometry" />
        </mxCell>
        <mxCell id="K7zcIh3FPO0Lbh3rbv_w-215" value="deque" style="text;html=1;strokeColor=#82b366;fillColor=#d5e8d4;align=left;verticalAlign=middle;whiteSpace=wrap;rounded=0;" vertex="1" parent="1">
          <mxGeometry x="40" y="2920" width="40" height="30" as="geometry" />
        </mxCell>
        <mxCell id="K7zcIh3FPO0Lbh3rbv_w-216" value="result" style="text;html=1;strokeColor=#6c8ebf;fillColor=#dae8fc;align=left;verticalAlign=middle;whiteSpace=wrap;rounded=0;" vertex="1" parent="1">
          <mxGeometry x="40" y="2810" width="40" height="30" as="geometry" />
        </mxCell>
        <mxCell id="K7zcIh3FPO0Lbh3rbv_w-217" value="3" style="rounded=0;whiteSpace=wrap;html=1;fillColor=#dae8fc;strokeColor=#6c8ebf;" vertex="1" parent="1">
          <mxGeometry x="240" y="2800" width="40" height="40" as="geometry" />
        </mxCell>
        <mxCell id="K7zcIh3FPO0Lbh3rbv_w-218" value="" style="endArrow=none;dashed=1;html=1;dashPattern=1 3;strokeWidth=2;rounded=0;" edge="1" parent="1">
          <mxGeometry width="50" height="50" relative="1" as="geometry">
            <mxPoint x="590" y="3050" as="sourcePoint" />
            <mxPoint x="590" y="2850" as="targetPoint" />
          </mxGeometry>
        </mxCell>
        <mxCell id="K7zcIh3FPO0Lbh3rbv_w-219" value="" style="endArrow=none;dashed=1;html=1;dashPattern=1 3;strokeWidth=2;rounded=0;" edge="1" parent="1">
          <mxGeometry width="50" height="50" relative="1" as="geometry">
            <mxPoint x="410" y="3050" as="sourcePoint" />
            <mxPoint x="410" y="2850" as="targetPoint" />
          </mxGeometry>
        </mxCell>
        <mxCell id="K7zcIh3FPO0Lbh3rbv_w-220" value="3" style="rounded=0;whiteSpace=wrap;html=1;fillColor=#dae8fc;strokeColor=#6c8ebf;" vertex="1" parent="1">
          <mxGeometry x="300" y="2800" width="40" height="40" as="geometry" />
        </mxCell>
        <mxCell id="K7zcIh3FPO0Lbh3rbv_w-222" value="5" style="rounded=0;whiteSpace=wrap;html=1;fillColor=#dae8fc;strokeColor=#6c8ebf;" vertex="1" parent="1">
          <mxGeometry x="360" y="2800" width="40" height="40" as="geometry" />
        </mxCell>
        <mxCell id="K7zcIh3FPO0Lbh3rbv_w-224" value="5" style="rounded=0;whiteSpace=wrap;html=1;fillColor=#dae8fc;strokeColor=#6c8ebf;" vertex="1" parent="1">
          <mxGeometry x="420" y="2800" width="40" height="40" as="geometry" />
        </mxCell>
        <mxCell id="K7zcIh3FPO0Lbh3rbv_w-231" value="smaller than current" style="text;html=1;strokeColor=none;fillColor=none;align=center;verticalAlign=middle;whiteSpace=wrap;rounded=0;fontStyle=2" vertex="1" parent="1">
          <mxGeometry x="440" y="2985" width="80" height="30" as="geometry" />
        </mxCell>
        <mxCell id="K7zcIh3FPO0Lbh3rbv_w-234" value="6" style="rounded=0;whiteSpace=wrap;html=1;fillColor=#dae8fc;strokeColor=#6c8ebf;" vertex="1" parent="1">
          <mxGeometry x="480" y="2800" width="40" height="40" as="geometry" />
        </mxCell>
        <mxCell id="K7zcIh3FPO0Lbh3rbv_w-235" value="&lt;h1&gt;&lt;span style=&quot;background-color: initial; font-size: 12px;&quot;&gt;i = 7&lt;/span&gt;&lt;br&gt;&lt;/h1&gt;" style="text;html=1;strokeColor=none;fillColor=none;spacing=5;spacingTop=-20;whiteSpace=wrap;overflow=hidden;rounded=0;" vertex="1" parent="1">
          <mxGeometry x="40" y="2750" width="40" height="40" as="geometry" />
        </mxCell>
        <mxCell id="K7zcIh3FPO0Lbh3rbv_w-236" value="6:6" style="rounded=0;whiteSpace=wrap;html=1;fillColor=#d5e8d4;strokeColor=#82b366;" vertex="1" parent="1">
          <mxGeometry x="540" y="2980" width="40" height="40" as="geometry" />
        </mxCell>
        <mxCell id="K7zcIh3FPO0Lbh3rbv_w-237" value="" style="group" vertex="1" connectable="0" parent="1">
          <mxGeometry x="540" y="2980" width="40" height="40" as="geometry" />
        </mxCell>
        <mxCell id="K7zcIh3FPO0Lbh3rbv_w-238" value="" style="endArrow=none;html=1;rounded=0;fillColor=#f8cecc;strokeColor=#b85450;strokeWidth=2;" edge="1" parent="K7zcIh3FPO0Lbh3rbv_w-237">
          <mxGeometry width="50" height="50" relative="1" as="geometry">
            <mxPoint y="40" as="sourcePoint" />
            <mxPoint x="40" as="targetPoint" />
          </mxGeometry>
        </mxCell>
        <mxCell id="K7zcIh3FPO0Lbh3rbv_w-239" value="" style="endArrow=none;html=1;rounded=0;fillColor=#f8cecc;strokeColor=#b85450;strokeWidth=2;" edge="1" parent="K7zcIh3FPO0Lbh3rbv_w-237">
          <mxGeometry width="50" height="50" relative="1" as="geometry">
            <mxPoint as="sourcePoint" />
            <mxPoint x="40" y="40" as="targetPoint" />
          </mxGeometry>
        </mxCell>
        <mxCell id="K7zcIh3FPO0Lbh3rbv_w-240" value="7:7" style="rounded=0;whiteSpace=wrap;html=1;fillColor=#d5e8d4;strokeColor=#82b366;" vertex="1" parent="1">
          <mxGeometry x="540" y="2915" width="40" height="40" as="geometry" />
        </mxCell>
        <mxCell id="K7zcIh3FPO0Lbh3rbv_w-241" value="7" style="rounded=0;whiteSpace=wrap;html=1;fillColor=#dae8fc;strokeColor=#6c8ebf;" vertex="1" parent="1">
          <mxGeometry x="540" y="2800" width="40" height="40" as="geometry" />
        </mxCell>
      </root>
    </mxGraphModel>
  </diagram>
</mxfile>
